<svg width="36" height="36" viewBox="0 0 36 36" fill="none" xmlns="http://www.w3.org/2000/svg">
<g filter="url(#filter0_d_1203_27447)">
<path d="M30.8923 11.3408H29.7986V11.2844H17.5782V16.7157H25.2519C24.1324 19.8774 21.1241 22.147 17.5782 22.147C13.0791 22.147 9.43128 18.4992 9.43128 14.0001C9.43128 9.50093 13.0791 5.85315 17.5782 5.85315C19.655 5.85315 21.5444 6.63661 22.983 7.91636L26.8236 4.07577C24.3985 1.81568 21.1547 0.421875 17.5782 0.421875C10.0796 0.421875 4 6.50151 4 14.0001C4 21.4986 10.0796 27.5783 17.5782 27.5783C25.0767 27.5783 31.1564 21.4986 31.1564 14.0001C31.1564 13.0896 31.0627 12.201 30.8923 11.3408Z" fill="#FFC107"/>
<path d="M5.56592 7.68034L10.027 10.952C11.2341 7.96344 14.1575 5.85339 17.5785 5.85339C19.6553 5.85339 21.5447 6.63685 22.9833 7.9166L26.8239 4.07601C24.3989 1.81592 21.155 0.422119 17.5785 0.422119C12.3632 0.422119 7.84026 3.36655 5.56592 7.68034Z" fill="#FF3D00"/>
<path d="M17.5787 27.5783C21.0859 27.5783 24.2728 26.2361 26.6822 24.0534L22.4797 20.4973C21.0707 21.5689 19.3489 22.1485 17.5787 22.1471C14.047 22.1471 11.0483 19.8951 9.91857 16.7524L5.49072 20.164C7.73791 24.5613 12.3015 27.5783 17.5787 27.5783Z" fill="#4CAF50"/>
<path d="M30.8922 11.3418H29.7985V11.2854H17.5781V16.7167H25.2518C24.7163 18.2214 23.7517 19.5363 22.4771 20.4989L22.4792 20.4975L26.6816 24.0537C26.3843 24.3239 31.1563 20.7901 31.1563 14.001C31.1563 13.0906 31.0626 12.2019 30.8922 11.3418Z" fill="#1976D2"/>
</g>
<defs>
<filter id="filter0_d_1203_27447" x="0" y="0.421875" width="35.1562" height="35.1565" filterUnits="userSpaceOnUse" color-interpolation-filters="sRGB">
<feFlood flood-opacity="0" result="BackgroundImageFix"/>
<feColorMatrix in="SourceAlpha" type="matrix" values="0 0 0 0 0 0 0 0 0 0 0 0 0 0 0 0 0 0 127 0" result="hardAlpha"/>
<feOffset dy="4"/>
<feGaussianBlur stdDeviation="2"/>
<feComposite in2="hardAlpha" operator="out"/>
<feColorMatrix type="matrix" values="0 0 0 0 0 0 0 0 0 0 0 0 0 0 0 0 0 0 0.25 0"/>
<feBlend mode="normal" in2="BackgroundImageFix" result="effect1_dropShadow_1203_27447"/>
<feBlend mode="normal" in="SourceGraphic" in2="effect1_dropShadow_1203_27447" result="shape"/>
</filter>
</defs>
</svg>
